<?xml version="1.0" standalone="no"?>
<!DOCTYPE svg PUBLIC "-//W3C//DTD SVG 20010904//EN"
 "http://www.w3.org/TR/2001/REC-SVG-20010904/DTD/svg10.dtd">
<svg version="1.0" xmlns="http://www.w3.org/2000/svg"
 width="201.000000pt" height="201.000000pt" viewBox="0 0 201.000000 201.000000"
 preserveAspectRatio="xMidYMid meet">
<metadata>
Created by potrace 1.11, written by Peter Selinger 2001-2013
</metadata>
<g transform="translate(0.000000,201.000000) scale(0.100000,-0.100000)"
fill="#000000" stroke="none">
<path d="M1060 1580 c0 -33 4 -60 10 -60 6 0 10 27 10 60 0 33 -4 60 -10 60
-6 0 -10 -27 -10 -60z"/>
<path d="M820 1584 c0 -12 55 -104 63 -104 12 0 9 9 -20 61 -23 42 -43 63 -43
43z"/>
<path d="M1257 1541 c-29 -52 -32 -61 -19 -61 7 0 62 92 62 104 0 20 -20 -1
-43 -43z"/>
<path d="M975 1460 c-43 -13 -112 -75 -135 -120 -26 -51 -35 -126 -20 -180 7
-25 36 -79 66 -121 44 -63 54 -85 54 -118 l0 -41 120 0 120 0 0 41 c0 33 11
57 55 122 64 96 79 151 65 229 -13 68 -53 125 -114 163 -39 24 -61 30 -115 32
-36 1 -80 -2 -96 -7z m186 -38 c90 -47 136 -140 118 -238 -6 -29 -29 -75 -64
-127 -42 -63 -55 -91 -55 -120 0 -34 -2 -37 -29 -37 l-28 0 23 108 c26 120 28
142 14 142 -5 0 -10 -9 -10 -19 0 -31 -29 -34 -40 -5 -6 14 -10 31 -11 37 0 7
-5 -1 -11 -16 -7 -19 -15 -26 -25 -23 -8 3 -23 1 -34 -4 -15 -8 -19 -7 -19 4
0 15 -18 32 -26 24 -2 -3 7 -55 21 -116 14 -61 25 -116 25 -121 0 -6 -11 -11
-25 -11 -22 0 -25 4 -25 36 0 27 -12 53 -45 101 -83 119 -97 170 -70 253 22
67 58 108 120 136 69 33 129 31 196 -4z m-56 -338 c20 7 21 17 -20 -162 -4
-17 -12 -22 -27 -20 -19 3 -25 16 -41 92 -17 79 -18 90 -4 104 14 13 17 12 25
-19 l9 -34 13 38 c13 34 15 36 22 16 5 -13 14 -19 23 -15z"/>
<path d="M680 1402 c0 -4 25 -20 55 -35 30 -15 55 -22 55 -17 0 5 -22 21 -50
35 -54 27 -60 29 -60 17z"/>
<path d="M1378 1384 c-67 -34 -60 -50 7 -17 30 15 55 31 55 35 0 12 -11 9 -62
-18z"/>
<path d="M683 1213 c-58 -4 -73 -23 -19 -23 49 0 96 11 90 21 -3 5 -8 8 -12 7
-4 -1 -31 -3 -59 -5z"/>
<path d="M1366 1212 c-3 -5 4 -12 17 -16 36 -9 107 -7 107 4 0 6 -20 10 -44
10 -24 0 -51 3 -59 6 -8 3 -18 1 -21 -4z"/>
<path d="M749 1019 c-56 -40 -53 -38 -46 -46 8 -7 107 57 107 70 0 14 -17 7
-61 -24z"/>
<path d="M1310 1043 c0 -13 99 -77 107 -70 7 8 10 6 -46 46 -44 31 -61 38 -61
24z"/>
<path d="M770 851 c0 -14 10 -20 46 -25 26 -3 62 -6 80 -6 l34 0 0 -374 0
-375 -80 -7 c-69 -6 -80 -9 -80 -25 0 -18 13 -19 290 -19 277 0 290 1 290 19
0 16 -11 19 -80 25 l-80 7 0 373 0 373 80 7 c70 7 80 10 80 27 0 18 -10 19
-290 19 -276 0 -290 -1 -290 -19z"/>
</g>
</svg>
