<?xml version="1.0" encoding="iso-8859-1"?>
<!-- Generator: Adobe Illustrator 16.0.0, SVG Export Plug-In . SVG Version: 6.00 Build 0)  -->
<!DOCTYPE svg PUBLIC "-//W3C//DTD SVG 1.1//EN" "http://www.w3.org/Graphics/SVG/1.1/DTD/svg11.dtd">
<svg version="1.1" id="Capa_1" xmlns="http://www.w3.org/2000/svg" xmlns:xlink="http://www.w3.org/1999/xlink" x="0px" y="0px"
	 width="47.249px" height="47.248px" viewBox="0 0 47.249 47.248" style="enable-background:new 0 0 47.249 47.248;"
	 xml:space="preserve">
<g>
	<g>
		<path d="M17.516,24.435c-1.144,0-2.074,0.932-2.074,2.074s0.931,2.072,2.074,2.072s2.072-0.93,2.072-2.072
			C19.588,25.364,18.658,24.435,17.516,24.435z"/>
		<ellipse cx="23.621" cy="32.02" rx="2.248" ry="0.898"/>
		<path d="M29.728,24.435c-1.145,0-2.074,0.932-2.074,2.074s0.932,2.072,2.074,2.072c1.144,0,2.071-0.93,2.071-2.072
			C31.8,25.364,30.871,24.435,29.728,24.435z"/>
		<path d="M47.118,15.794c-0.424-0.941-1.604-1.129-3.376-1.129c-1.269,0-2.984,0.113-4.952,0.258V9.706
			c0-0.924-0.51-1.773-1.326-2.207C35.83,6.63,27.481,2.294,23.622,2.294c-3.86,0-12.208,4.336-13.842,5.205
			C8.964,7.933,8.454,8.782,8.454,9.706v5.217c-1.968-0.145-3.686-0.258-4.952-0.258c-1.771,0-2.953,0.188-3.345,1.064
			c-0.233,0.432-0.206,0.949,0.075,1.42c0.647,1.084,3.096,2.42,6.679,3.553c-0.373,1.295-0.624,2.742-0.771,4.045
			c-1.372,1.156-2.251,2.93-2.251,4.914c0,2.789,1.737,5.158,4.137,5.988c3.026,5.66,9.001,9.305,15.625,9.305
			c6.631,0,12.616-3.656,15.64-9.328c2.364-0.852,4.067-3.203,4.067-5.965c0-1.953-0.854-3.701-2.188-4.859
			c-0.146-1.318-0.4-2.791-0.783-4.115c3.555-1.131,5.982-2.459,6.627-3.537C47.291,16.679,47.319,16.161,47.118,15.794z
			 M18.467,9.614c2.183-0.135,4.066-1.016,5.154-2.295c1.087,1.279,2.972,2.16,5.153,2.295c0.007,0.133,0.016,0.266,0.016,0.4
			c0,3.549-2.125,6.598-5.168,7.959c-3.045-1.361-5.169-4.41-5.169-7.959C18.452,9.88,18.461,9.747,18.467,9.614z M37.339,31.964
			c-0.262,0-0.508-0.059-0.734-0.162c-1.834,5.32-6.936,9.152-12.956,9.152c-6.025,0-11.131-3.84-12.959-9.17
			c-0.242,0.115-0.506,0.18-0.785,0.18c-1.119,0-2.018-1.029-2.018-2.303c0-1.271,0.896-2.301,2.013-2.303
			c0.308,0.523,0.661,1.033,1.061,1.516c-0.373-1.283-0.578-2.604-0.578-3.914c0-1.154,0.171-2.221,0.463-3.213
			c3.661,0.813,7.994,1.365,12.622,1.365h0.306c4.629,0,8.961-0.555,12.624-1.365c0.291,0.992,0.463,2.059,0.463,3.213
			c0,1.311-0.203,2.631-0.578,3.914c0.4-0.482,0.754-0.99,1.063-1.518c1.114,0.004,2.012,1.033,2.012,2.305
			S38.457,31.964,37.339,31.964z"/>
	</g>
</g>
<g>
</g>
<g>
</g>
<g>
</g>
<g>
</g>
<g>
</g>
<g>
</g>
<g>
</g>
<g>
</g>
<g>
</g>
<g>
</g>
<g>
</g>
<g>
</g>
<g>
</g>
<g>
</g>
<g>
</g>
</svg>
